<svg width="32" height="31" viewBox="0 0 32 31" fill="none" xmlns="http://www.w3.org/2000/svg">
<path d="M23.7707 26.6157L28.8196 21.9918L27.7067 20.9549L23.7707 24.5651L22.0729 22.9527L20.9582 23.9978L23.7707 26.6157ZM4.92444 8.26574H23.5236V6.61199H4.92267L4.92444 8.26574ZM24.8889 30.4011C22.9084 30.4011 21.2284 29.7589 19.8489 28.4745C18.4681 27.1912 17.7778 25.6284 17.7778 23.7861C17.7778 21.9439 18.4681 20.3805 19.8489 19.0961C21.2296 17.8117 22.9096 17.1701 24.8889 17.1712C26.8681 17.1723 28.5487 17.8139 29.9307 19.0961C31.3126 20.3783 32.0024 21.9417 32 23.7861C32 25.6273 31.3102 27.1901 29.9307 28.4745C28.5487 29.7589 26.8681 30.4011 24.8889 30.4011ZM0 28.1735V0.441864H28.4444V12.9442C27.3873 12.6212 26.304 12.4552 25.1947 12.4464C24.0853 12.4376 22.992 12.5704 21.9147 12.845H4.92267V14.4987H17.9218C17.0305 15.0731 16.2447 15.7473 15.5644 16.5212C14.8841 17.2952 14.3236 18.1474 13.8827 19.0779H4.92444V20.7317H13.2978C13.1698 21.1771 13.0702 21.6264 12.9991 22.0795C12.928 22.5326 12.8919 23.0056 12.8907 23.4984C12.8907 24.2536 12.9754 25.0028 13.1449 25.7458C13.3144 26.4889 13.5692 27.205 13.9093 27.8941L13.8489 27.9503L11.8311 26.5843L9.43822 28.1735L7.04533 26.5843L4.65244 28.1735L2.25778 26.5843L0 28.1735Z" fill="#000000"/>
</svg>
