<svg width="34" height="29" viewBox="0 0 34 29" fill="none" xmlns="http://www.w3.org/2000/svg">
<path d="M11.0167 17.9768C11.0167 14.752 12.65 11.8992 15.1667 10.0543H3.33333L5.83333 3.07753H24.1667L26.2 8.75195C27.6 9.3256 28.8333 10.1628 29.85 11.2016L26.5333 2.30234C26.2 1.40312 25.2667 0.751953 24.1667 0.751953H5.83333C4.73333 0.751953 3.8 1.40312 3.46667 2.30234L0 11.6047V24.0078C0 24.8605 0.75 25.5582 1.66667 25.5582H3.33333C4.25 25.5582 5 24.8605 5 24.0078V22.4574H12.15C11.4333 21.1085 11.0167 19.5892 11.0167 17.9768ZM5.83333 17.8062C4.45 17.8062 3.33333 16.7675 3.33333 15.4806C3.33333 14.1938 4.45 13.1551 5.83333 13.1551C7.21667 13.1551 8.33333 14.1938 8.33333 15.4806C8.33333 16.7675 7.21667 17.8062 5.83333 17.8062ZM21.85 11C26.0167 11 29.35 14.1008 29.35 17.9768C29.35 19.3566 28.9333 20.6279 28.2 21.6822L33.3333 26.5039L31.0167 28.6589L25.8333 23.8992C24.6667 24.5659 23.3333 24.9535 21.85 24.9535C17.6833 24.9535 14.35 21.8527 14.35 17.9768C14.35 14.1008 17.6833 11 21.85 11ZM21.85 14.1008C21.0259 14.1008 20.2203 14.3281 19.5351 14.754C18.8499 15.1799 18.3159 15.7852 18.0005 16.4935C17.6851 17.2017 17.6026 17.9811 17.7634 18.7329C17.9242 19.4848 18.321 20.1754 18.9037 20.7175C19.4864 21.2595 20.2289 21.6287 21.0371 21.7783C21.8454 21.9278 22.6832 21.8511 23.4445 21.5577C24.2059 21.2643 24.8566 20.7675 25.3145 20.1301C25.7723 19.4927 26.0167 18.7434 26.0167 17.9768C26.0167 15.8217 24.1667 14.1008 21.85 14.1008Z" fill="black"/>
</svg>
