<svg width="32" height="31" viewBox="0 0 32 31" fill="none" xmlns="http://www.w3.org/2000/svg">
<path d="M16 0.441864C11.7565 0.441864 7.68687 2.00997 4.68629 4.80121C1.68571 7.59244 0 11.3782 0 15.3256C0 19.273 1.68571 23.0587 4.68629 25.85C7.68687 28.6412 11.7565 30.2093 16 30.2093C18.1011 30.2093 20.1817 29.8243 22.1229 29.0764C24.0641 28.3284 25.828 27.232 27.3137 25.85C28.7994 24.4679 29.978 22.8271 30.7821 21.0213C31.5861 19.2156 32 17.2801 32 15.3256C32 13.371 31.5861 11.4356 30.7821 9.62983C29.978 7.82406 28.7994 6.18329 27.3137 4.80121C25.828 3.41912 24.0641 2.3228 22.1229 1.57482C20.1817 0.826843 18.1011 0.441864 16 0.441864ZM16 5.63533C21.7459 5.63533 26.417 9.98056 26.417 15.3256C26.417 20.6706 21.7459 25.0158 16 25.0158C10.2541 25.0158 5.58298 20.6706 5.58298 15.3256C5.58298 9.98056 10.2541 5.63533 16 5.63533ZM16 6.77536C14.6099 6.77536 13.2931 7.06164 12.113 7.57351C12.8992 9.65596 14.2446 12.2855 16 12.2855C17.7582 12.2855 19.0588 9.6476 19.864 7.56357C18.6897 7.05796 17.381 6.77536 16 6.77536ZM22.7235 9.49117C20.8366 10.8303 18.5607 12.8346 19.1035 14.3887C19.6468 15.9444 22.7466 16.2797 25.1262 16.348C25.169 16.0127 25.1915 15.6717 25.1915 15.3256C25.1915 13.0682 24.255 11.018 22.7235 9.49117ZM9.26114 9.50656C7.73876 11.0317 6.80851 13.0757 6.80851 15.3256C6.80851 15.6771 6.83166 16.0234 6.87578 16.3636C9.24739 16.3114 12.3485 15.9334 12.8907 14.3813C13.4336 12.8269 11.1423 10.8628 9.26114 9.50656ZM14.0399 12.2707C13.9165 12.2739 13.797 12.3118 13.6971 12.3792C13.5656 12.4681 13.4775 12.6019 13.4521 12.7512C13.4267 12.9005 13.4661 13.0531 13.5616 13.1754C13.6571 13.2977 13.8009 13.3797 13.9614 13.4033C14.1219 13.427 14.2859 13.3904 14.4174 13.3016C14.4825 13.2576 14.5377 13.2021 14.5798 13.1383C14.6218 13.0744 14.6499 13.0035 14.6625 12.9296C14.6751 12.8557 14.6719 12.7801 14.6532 12.7073C14.6344 12.6345 14.6004 12.5659 14.5531 12.5053C14.4945 12.4304 14.4171 12.3698 14.3277 12.3289C14.2383 12.288 14.1395 12.268 14.0399 12.2707ZM17.9601 12.2707C17.9456 12.2703 17.9312 12.2704 17.9167 12.2709C17.8245 12.2746 17.7344 12.2975 17.653 12.3381C17.5717 12.3787 17.5012 12.4358 17.4469 12.5053C17.3996 12.5658 17.3656 12.6345 17.3468 12.7073C17.328 12.7801 17.3248 12.8556 17.3374 12.9296C17.35 13.0035 17.3782 13.0744 17.4202 13.1383C17.4623 13.2021 17.5174 13.2576 17.5826 13.3016C17.714 13.3904 17.8781 13.427 18.0386 13.4034C18.1991 13.3797 18.3429 13.2977 18.4384 13.1754C18.5339 13.0531 18.5733 12.9006 18.5479 12.7513C18.5225 12.602 18.4344 12.4682 18.3029 12.3793C18.203 12.3118 18.0835 12.2739 17.9601 12.2707ZM16 13.2989C15.4222 13.2989 14.868 13.5124 14.4594 13.8925C14.0508 14.2726 13.8213 14.7881 13.8213 15.3256C13.8213 15.8631 14.0508 16.3786 14.4594 16.7587C14.868 17.1388 15.4222 17.3523 16 17.3523C16.5778 17.3523 17.132 17.1388 17.5406 16.7587C17.9492 16.3786 18.1787 15.8631 18.1787 15.3256C18.1787 14.7881 17.9492 14.2726 17.5406 13.8925C17.132 13.5124 16.5778 13.2989 16 13.2989ZM12.8479 15.7079C12.7865 15.7088 12.7256 15.7182 12.6673 15.7358C12.5908 15.7589 12.5199 15.7958 12.4587 15.8445C12.3975 15.8931 12.3471 15.9524 12.3106 16.0191C12.2741 16.0858 12.252 16.1586 12.2457 16.2332C12.2394 16.3078 12.2489 16.3829 12.2738 16.4541C12.324 16.5979 12.4336 16.7172 12.5783 16.7858C12.7231 16.8544 12.8913 16.8667 13.0459 16.82C13.1224 16.7969 13.1933 16.76 13.2545 16.7114C13.3157 16.6628 13.366 16.6034 13.4025 16.5367C13.4391 16.4701 13.4611 16.3973 13.4675 16.3227C13.4738 16.2481 13.4642 16.173 13.4394 16.1018C13.3989 15.986 13.3197 15.8853 13.2133 15.8144C13.1068 15.7435 12.9788 15.7062 12.8479 15.7079ZM19.17 15.7084C19.0362 15.703 18.9041 15.7386 18.7941 15.8096C18.684 15.8806 18.602 15.9833 18.5606 16.1018C18.5358 16.173 18.5262 16.248 18.5325 16.3226C18.5389 16.3973 18.5609 16.47 18.5975 16.5367C18.634 16.6034 18.6843 16.6627 18.7455 16.7113C18.8067 16.7599 18.8776 16.7969 18.9541 16.82C19.1087 16.8667 19.2768 16.8544 19.4216 16.7858C19.5664 16.7171 19.676 16.5978 19.7262 16.4541C19.7511 16.3829 19.7606 16.3078 19.7543 16.2332C19.748 16.1586 19.7259 16.0858 19.6894 16.0191C19.6529 15.9524 19.6025 15.8931 19.5413 15.8445C19.4801 15.7958 19.4092 15.7589 19.3327 15.7358C19.28 15.7199 19.2253 15.7107 19.17 15.7084ZM12.8964 17.4636C11.4265 17.4702 9.47581 18.5297 7.96541 19.4858C9.261 21.6498 11.5372 23.233 14.239 23.7189C14.9191 21.6042 15.4931 18.7397 14.0724 17.7796C13.742 17.5562 13.3414 17.4616 12.8964 17.4636ZM19.0932 17.4649C18.6452 17.4649 18.2427 17.5609 17.9122 17.7843C16.4896 18.7457 17.1045 21.5911 17.7701 23.7173C20.4722 23.2287 22.7476 21.6425 24.0407 19.4756C22.5424 18.5114 20.5728 17.4649 19.0932 17.4649V17.4649ZM16 17.8324C15.8375 17.8324 15.6816 17.8924 15.5667 17.9993C15.4518 18.1062 15.3872 18.2512 15.3872 18.4024C15.3872 18.5536 15.4518 18.6986 15.5667 18.8055C15.6816 18.9124 15.8375 18.9724 16 18.9724C16.1625 18.9724 16.3184 18.9124 16.4333 18.8055C16.5482 18.6986 16.6128 18.5536 16.6128 18.4024C16.6128 18.2512 16.5482 18.1062 16.4333 17.9993C16.3184 17.8924 16.1625 17.8324 16 17.8324Z" fill="#000000"/>
</svg>
